<svg xmlns="http://www.w3.org/2000/svg" viewBox="0 0 164 164" version="1.1" id="svg14" width="164" height="164"><g transform="translate(0 29.24) scale(.5467)" id="g3318"><path d="M266.5 81q4.8 0 8 1.4 3 1.3 4.8 3.8 1.8 2.4 2.5 6 .7 3.4.7 7.7 0 4.3-.7 7.8t-2.5 6q-1.8 2.5-4.9 3.8-3 1.4-8 1.4h-9V131h-14.9V89q0-3.8 2.2-5.9 2.1-2 6.2-2h15.6m-9 27.9h4.5q1.7 0 2.7-1 1-.8 1.6-2.1.5-1.4.7-3l.2-2.9q0-1.7-.2-3.3-.2-1.6-.7-2.8-.6-1.3-1.7-2-1-.8-2.9-.8h-.4q-2.3 0-3 .7-.9.7-.9 2.9V109zm-119.1 84q-4 0-6.2-2-2.1-2-2.1-5.9V143H145v12.1h9q4.8 0 8 1.4 3 1.4 4.8 3.8 1.8 2.5 2.5 6 .6 3.5.6 7.8t-.6 7.8q-.7 3.5-2.5 6-1.8 2.4-4.9 3.7-3 1.4-8 1.4h-15.5m6.6-13.6q0 2.2.7 2.9.8.7 3 .7h.5q1.9 0 3-.7 1-.8 1.6-2 .5-1.3.7-3 .2-1.5.2-3.2l-.2-3q-.2-1.5-.7-2.8-.5-1.4-1.6-2.3-1-.9-2.7-.9H145zM33.5 131q-5 0-8-1.4-3.1-1.3-4.9-3.8-1.8-2.5-2.4-6-.7-3.5-.7-7.7 0-4.3.7-7.8.6-3.5 2.4-6 1.8-2.4 4.9-3.8 3-1.4 8-1.4h9V81h15v42.1q0 3.8-2.1 5.8-2.2 2-6.3 2H33.5m9-27.8H38q-1.7 0-2.7 1-1 .8-1.6 2.1-.5 1.4-.7 3l-.1 2.9.1 3.3q.2 1.6.8 2.8.5 1.3 1.6 2 1 .8 3 .8h.5q2.2 0 3-.7.8-.7.8-2.9v-14.3zM154 0q4.8 0 8 1.4 3 1.3 4.8 3.8 1.8 2.4 2.5 6 .7 3.4.7 7.7 0 4.3-.7 7.8t-2.5 6q-1.8 2.5-4.9 3.8-3 1.4-8 1.4h-9V50H130V8q0-3.8 2.2-5.9 2.2-2 6.2-2H154M145 28h4.5q1.7 0 2.8-1 1-.8 1.5-2.1.5-1.4.7-3l.2-2.9q0-1.7-.2-3.3-.2-1.6-.7-2.8-.6-1.3-1.7-2-1-.8-2.9-.8h-.4q-2.3 0-3 .7-.8.7-.8 2.9z" id="path4" style="fill:#333;fill-opacity:1;stroke:none;stroke-opacity:1"/><g style="fill:#333;fill-opacity:1;stroke:none" transform="translate(-2.5 -.5)" id="g878"><path style="fill:#333;fill-opacity:1;stroke:none;stroke-opacity:1" id="path6" d="M155.09 118.48s10.84 7.02 16.28 10.8c8.7 6.04 15.97 10.81 18.6 13.4l5.72 5.62c3.8 5.2 6.2 7 10 7 5.7.5 12.4-2.3 15.3-6.5l3.3-7c1.5-4.8 3.4-7.6 7.2-12.3 3.8-5.2 1.4-11.3-5.7-14.6-3.4-1.4-2.9-1-16.8-1-12.9.5-25.6-2.3-53.3-16.4-25.67-15.73-66.2-40-78.1-48a104.84 104.84 0 0 1-25-24.9c-3.3-5.1-4.7-6.5-9-8.4-3.8-1.9-9-1.9-11.5-.5-2.4 1.4-3.8 3.3-5.2 7-2 5.7-4.3 9-7.2 9.5l-5.3-.5c-4.7-.5-5.7 0-9 2.8-3 3.3-3.4 5.7-2.4 10.4 1.9 9.8 7.5 15.5 16.7 17.4 2.9.4 11.5.4 18.2-.5 7.6-1 15.12-.17 25.9 4.63 8.5 3.86 29.44 15.54 42.3 22.47 9.53 5.15 17.09 9.02 26.7 14.24"/><g style="fill:#333;fill-opacity:1;stroke:none" id="g846" transform="translate(1.5 -.5)"><path d="M145.41 119.05s-31.11 21.8-32.81 24.15l-4.8 5.6c-3.8 5.2-6.2 6.6-10 7-5.7.5-12.4-2.3-15.3-6.5l-3.3-7c-1.5-4.8-3.4-8-7.2-12.3-3.8-5.2-1.4-11.3 5.7-14.6 3.4-1.4 3.07-.57 16.97-.17 12.9 0 19.6-2.3 47.3-16.9 26.8-14 72.03-40.83 83.93-48.23a104.83 104.83 0 0 0 25-25c3.3-5.1 4.7-6.6 9-8.4 3.8-2 9-2.4 11.5-.5 2.4 1 3.8 3.3 5.2 7 2 5.7 4.3 9 7.2 9.5l5.3-.5c4.7-.5 5.7-.5 9 2.8 3 3.3 3.4 5.6 2.4 10.3-1.9 9.5-7.6 15.6-16.7 17.4-2.9.5-11.5 0-18.2-.4-7.6-1-16.2 0-24.4 3.7-12.9 5.2-47.64 23.24-70.64 37.34l-2.27 1.55" id="path8" style="fill:#333;fill-opacity:1;stroke:none;stroke-opacity:1"/></g></g><path style="fill:#ccc;stroke:none;stroke-width:1.07903;stroke-opacity:1" id="path12" d="M149.32 83.63c2.63 0 5.07.4 7.33 1.17 2.19.86 4.2 1.92 6.02 3.2a15.72 15.72 0 0 1 4.05 4.79 12.1 12.1 0 0 1 1.53 5.95v9.69c0 1.27-.84 2.34-2.52 3.19a27.06 27.06 0 0 1-7 2.13v3.62h-19.15v-3.52a46.77 46.77 0 0 1-6.9-2.12c-1.67-.93-2.5-1.99-2.5-3.2v-9.79c0-2.12.5-4.07 1.52-5.85a13.47 13.47 0 0 1 4.05-4.68 17.86 17.86 0 0 1 6.13-3.2 20.06 20.06 0 0 1 7.44-1.38m-5.47 25.22a3.91 3.91 0 0 0 1.75-3.3c0-1.2-.58-2.27-1.75-3.19a6.74 6.74 0 0 0-8.32-.1c-1.1.92-1.38 1.44-1.64 3.08.22 2.01.9 3.26 3.44 4.36 3.53.95 5.35.08 6.52-.85zm5.47-1.91l-3.06 6.6 6-.08zm9.2 3.19c1.6 0 2.94-.46 4.04-1.38a4 4 0 0 0 1.64-3.3 4.1 4.1 0 0 0-1.64-3.2 6.54 6.54 0 0 0-8.2-.1 4.1 4.1 0 0 0-1.65 3.2c0 1.34.55 2.4 1.64 3.18a6.64 6.64 0 0 0 4.27 1.6z"/></g></svg>
