<?xml version="1.0" encoding="UTF-8" standalone="no"?>
<svg
   xmlns:dc="http://purl.org/dc/elements/1.1/"
   xmlns:cc="http://creativecommons.org/ns#"
   xmlns:rdf="http://www.w3.org/1999/02/22-rdf-syntax-ns#"
   xmlns:svg="http://www.w3.org/2000/svg"
   xmlns="http://www.w3.org/2000/svg"
   xmlns:sodipodi="http://sodipodi.sourceforge.net/DTD/sodipodi-0.dtd"
   xmlns:inkscape="http://www.inkscape.org/namespaces/inkscape"
   inkscape:version="1.0 (4035a4fb49, 2020-05-01)"
   sodipodi:docname="PPBDsvg_Updated-01.01.21.svg"
   viewBox="0 0 164 164"
   version="1.1"
   id="svg14"
   width="164"
   height="164">
  <sodipodi:namedview
     inkscape:current-layer="svg14"
     inkscape:window-maximized="1"
     inkscape:window-y="-8"
     inkscape:window-x="-8"
     inkscape:cy="82"
     inkscape:cx="82"
     inkscape:zoom="1.9780299"
     showgrid="false"
     id="namedview12"
     inkscape:window-height="705"
     inkscape:window-width="1366"
     inkscape:pageshadow="2"
     inkscape:pageopacity="0"
     guidetolerance="10"
     gridtolerance="10"
     objecttolerance="10"
     borderopacity="1"
     bordercolor="#666666"
     pagecolor="#ffffff" />
  <metadata
     id="metadata20">
    <rdf:RDF>
      <cc:Work
         rdf:about="">
        <dc:format>image/svg+xml</dc:format>
        <dc:type
           rdf:resource="http://purl.org/dc/dcmitype/StillImage" />
        <dc:title></dc:title>
      </cc:Work>
    </rdf:RDF>
  </metadata>
  <defs
     id="defs18" />
  <g
     transform="matrix(0.54670039,0,0,0.54670039,2.1608897e-6,29.2435)"
     id="g3318">
    <path
       d="m 266.49075,81 q 4.8,0 8,1.4 3,1.3 4.8,3.8 1.8,2.4 2.5,6 0.7,3.4 0.7,7.7 0,4.3 -0.7,7.8 -0.7,3.5 -2.5,6 -1.8,2.5 -4.9,3.8 -3,1.4 -8,1.4 h -9 V 131 h -14.9 V 89 q 0,-3.8 2.2,-5.9 2.1,-2 6.2,-2 h 15.6 m -9,27.9 h 4.5 q 1.7,0 2.7,-1 1,-0.8 1.6,-2.1 0.5,-1.4 0.7,-3 l 0.2,-2.9 q 0,-1.7 -0.2,-3.3 -0.2,-1.6 -0.7,-2.8 -0.6,-1.3 -1.7,-2 -1,-0.8 -2.9,-0.8 h -0.4 q -2.3,0 -3,0.7 -0.9,0.7 -0.9,2.9 V 109 Z m -119.1,84 q -4,0 -6.2,-2 -2.1,-2 -2.1,-5.9 V 143 h 14.9 v 12.1 h 9 q 4.8,0 8,1.4 3,1.4 4.8,3.8 1.8,2.5 2.5,6 0.6,3.5 0.6,7.8 0,4.3 -0.6,7.8 -0.7,3.5 -2.5,6 -1.8,2.4 -4.9,3.7 -3,1.4 -8,1.4 h -15.5 m 6.6,-13.6 q 0,2.2 0.7,2.9 0.8,0.7 3,0.7 h 0.5 q 1.9,0 3,-0.7 1,-0.8 1.6,-2 0.5,-1.3 0.7,-3 0.2,-1.5 0.2,-3.2 l -0.2,-3 q -0.2,-1.5 -0.7,-2.8 -0.5,-1.4 -1.6,-2.3 -1,-0.9 -2.7,-0.9 h -4.5 z M 33.490753,131 q -5,0 -8,-1.4 -3.1,-1.3 -4.9,-3.8 -1.8,-2.5 -2.4,-6 -0.7,-3.5 -0.7,-7.7 0,-4.3 0.7,-7.8 0.6,-3.5 2.4,-6 1.8,-2.4 4.9,-3.8 3,-1.4 8,-1.4 h 9 V 81 h 15 v 42.1 q 0,3.8 -2.1,5.8 -2.2,2 -6.3,2 h -15.6 m 9,-27.8 h -4.5 q -1.7,0 -2.7,1 -1,0.8 -1.6,2.1 -0.5,1.4 -0.7,3 l -0.1,2.9 0.1,3.3 q 0.2,1.6 0.8,2.8 0.5,1.3 1.6,2 1,0.8 3,0.8 h 0.5 q 2.2,0 3,-0.7 0.8,-0.7 0.8,-2.9 V 103.1 Z M 153.99075,0 q 4.8,0 8,1.4 3,1.3 4.8,3.8 1.8,2.4 2.5,6 0.7,3.4 0.7,7.7 0,4.3 -0.7,7.8 -0.7,3.5 -2.5,6 -1.8,2.5 -4.9,3.8 -3,1.4 -8,1.4 h -9 V 50 h -14.9 V 8 q 0,-3.8 2.2,-5.9 2.2,-2 6.2,-2 h 15.6 m -9,27.9 h 4.5 q 1.7,0 2.8,-1 1,-0.8 1.5,-2.1 0.5,-1.4 0.7,-3 l 0.2,-2.9 q 0,-1.7 -0.2,-3.3 -0.2,-1.6 -0.7,-2.8 -0.6,-1.3 -1.7,-2 -1,-0.8 -2.9,-0.8 h -0.4 q -2.3,0 -3,0.7 -0.8,0.7 -0.8,2.9 z"
       id="path4"
       style="fill:#333333;fill-opacity:1;stroke:none;stroke-opacity:1" />
    <g
       style="fill:#333333;fill-opacity:1;stroke:none"
       transform="translate(-2.500373,-0.5)"
       id="g878">
      <path
         style="fill:#333333;fill-opacity:1;stroke:none;stroke-opacity:1"
         id="path6"
         d="m 155.08659,118.48366 c 0,0 10.83901,7.01264 16.2785,10.791 8.70417,6.04606 15.97889,10.81921 18.60715,13.39721 l 5.71889,5.62813 c 3.8,5.2 6.2,7 10,7 5.7,0.5 12.4,-2.3 15.3,-6.5 l 3.3,-7 c 1.5,-4.8 3.4,-7.6 7.2,-12.3 3.8,-5.2 1.4,-11.3 -5.7,-14.6 -3.4,-1.4 -2.9,-1 -16.8,-1 -12.9,0.5 -25.6,-2.3 -53.3,-16.4 -25.67223,-15.727765 -66.200004,-40 -78.100004,-48 -9.703188,-6.85076 -18.156206,-15.269966 -25,-24.9 -3.3,-5.1 -4.7,-6.5 -9,-8.4 -3.8,-1.9 -9,-1.9 -11.5,-0.5 -2.4,1.4 -3.8,3.3 -5.2,7 -2,5.7 -4.3,9 -7.2,9.5 l -5.3,-0.5 c -4.6999998,-0.5 -5.6999998,0 -8.9999998,2.8 -3,3.3 -3.4,5.7 -2.4,10.4 1.9,9.8 7.4999998,15.5 16.6999998,17.4 2.9,0.4 11.5,0.4 18.2,-0.5 7.6,-1 15.115795,-0.169656 25.900041,4.626496 8.494262,3.862633 29.437679,15.543029 42.293813,22.476842 9.53951,5.145033 17.09267,9.020536 26.70902,14.238042" />
      <g
         style="fill:#333333;fill-opacity:1;stroke:none"
         id="g846"
         transform="translate(1.4911262,-0.5)">
        <path
           d="m 145.41071,119.04918 c 0,0 -31.11071,21.80082 -32.81071,24.15082 l -4.8,5.6 c -3.8,5.2 -6.2,6.6 -10,7 -5.7,0.5 -12.4,-2.3 -15.3,-6.5 l -3.3,-7 c -1.5,-4.8 -3.4,-8 -7.2,-12.3 -3.8,-5.2 -1.4,-11.3 5.7,-14.6 3.4,-1.4 3.066105,-0.56948 16.966105,-0.16948 12.899995,0 19.599995,-2.3 47.299995,-16.899996 C 168.7661,84.330524 214,57.5 225.9,50.1 c 9.71165,-6.880739 18.16516,-15.334251 25,-25 3.3,-5.1 4.7,-6.6 9,-8.4 3.8,-2 9,-2.4 11.5,-0.5 2.4,1 3.8,3.3 5.2,7 2,5.7 4.3,9 7.2,9.5 l 5.3,-0.5 c 4.7,-0.5 5.7,-0.5 9,2.8 3,3.3 3.4,5.6 2.4,10.3 -1.9,9.5 -7.6,15.6 -16.7,17.4 -2.9,0.5 -11.5,0 -18.2,-0.4 -7.6,-1 -16.2,0 -24.4,3.7 -12.9,5.2 -47.64141,23.242257 -70.64141,37.34226 l -2.27145,1.54872"
           id="path8"
           style="fill:#333333;fill-opacity:1;stroke:none;stroke-opacity:1" />
      </g>
    </g>
    <path
       style="fill:#cccccc;stroke:none;stroke-width:1.07903;stroke-opacity:1"
       id="path12"
       d="m 149.31968,83.633741 c 2.62595,0 5.06955,0.390175 7.33077,1.170529 2.1883,0.851293 4.19422,1.915411 6.01779,3.192352 1.75063,1.418823 3.10008,3.014999 4.04835,4.788528 1.0212,1.84447 1.53179,3.830821 1.53179,5.959061 v 9.683459 c 0,1.27695 -0.83884,2.34106 -2.51653,3.19236 -1.67769,0.85129 -4.01186,1.56071 -7.00251,2.12823 v 3.618 h -19.14753 v -3.51159 c -2.91773,-0.70941 -5.21544,-1.41882 -6.89312,-2.12823 -1.67768,-0.92224 -2.51654,-1.98636 -2.51654,-3.19235 v -9.78988 c 0,-2.12824 0.51062,-4.07912 1.53182,-5.852649 1.02119,-1.915412 2.37063,-3.476117 4.04832,-4.682117 1.75064,-1.418822 3.79303,-2.48294 6.12721,-3.192352 2.33418,-0.922235 4.81424,-1.383352 7.44018,-1.383352 m -5.47072,25.21958 c 1.16709,-0.85129 1.75063,-1.95088 1.75063,-3.29876 0,-1.206 -0.58354,-2.27012 -1.75063,-3.19235 -1.16709,-0.92224 -2.48007,-1.41882 -3.93892,-1.48977 -1.75064,0 -3.20949,0.46111 -4.37658,1.38335 -1.09414,0.92224 -1.38238,1.44742 -1.64121,3.08594 0.21882,2.01269 0.90718,3.25443 3.44094,4.36068 3.52803,0.94673 5.34868,0.0731 6.51577,-0.84909 z m 5.47072,-1.91541 -3.0636,6.59753 5.99521,-0.0781 z m 9.19082,3.19235 c 1.60475,0 2.9542,-0.46111 4.04832,-1.38335 1.09416,-0.85129 1.64124,-1.95088 1.64124,-3.29876 0,-1.206 -0.54708,-2.27012 -1.64124,-3.19236 -1.09412,-0.92224 -2.44357,-1.41882 -4.04832,-1.48976 -1.60475,0 -2.99066,0.46111 -4.15775,1.38335 -1.09415,0.92224 -1.64122,1.98636 -1.64122,3.19235 0,1.34789 0.54707,2.41201 1.64122,3.19236 1.31298,1.06411 2.73536,1.59617 4.26716,1.59617 z" />
  </g>
</svg>
